<svg clip-rule="evenodd" fill-rule="evenodd" height="321.130814" stroke-linejoin="round" stroke-miterlimit="2" viewBox="0 0 226 233" width="311.399578" xmlns="http://www.w3.org/2000/svg"><path d="m225.08 112.52c-.71-1.85-10.54-20-28.78-42.77-.461-.552-.752-1.226-.84-1.94-1.089-13.264-2.912-26.458-5.46-39.52-.588-2.683-2.839-4.704-5.57-5l-19-2.29c-.167-.01-.333-.01-.5 0-2.194 0-4 1.806-4 4v6.58c0 .132-.108.24-.24.24-.059-.001-.115-.022-.16-.06-11.856-10.772-24.662-20.452-38.26-28.92-2.777-1.861-6.047-2.85-9.39-2.84-3.342-.009-6.613.98-9.39 2.84-65.49 40.45-101.49 106.08-102.87 109.68-1.515 3.215-.121 7.107 3.09 8.63.379.178.774.319 1.18.42l18.85 3.63c2.546.696 4.419 2.887 4.71 5.51.15 3.33 3.72 77.66 8.19 96.94.755 2.838 3.343 4.829 6.28 4.83h.14c11-.28 21.07-.46 32-.61h.94c1.157-.011 2.105-.963 2.11-2.12v-.05c-.45-6.49-1.4-21.33-2.17-37 0-.39-.05-.88-.07-1.28-.112-1.307-.861-2.479-2-3.13-5.816-3.482-9.524-9.65-9.87-16.42-1-26.06-1.49-56.19-.07-79.76.041-2.051 1.739-3.716 3.79-3.716 2.08 0 3.791 1.711 3.791 3.791 0 .025-.001.05-.001.075v.3c-.93 15.71-1 34.29-.68 52.62.043 2.438 2.061 4.421 4.5 4.421 2.469 0 4.501-2.032 4.501-4.501 0-.027-.001-.053-.001-.08-.34-18.45-.24-37.15.71-52.91.041-2.051 1.739-3.716 3.79-3.716 2.08 0 3.791 1.711 3.791 3.791 0 .025-.001.05-.001.075v.3c-.92 15.63-1 34.1-.68 52.33.038 2.442 2.058 4.431 4.5 4.431 2.469 0 4.501-2.032 4.501-4.501 0-.023-.001-.047-.001-.07-.34-18.37-.24-37 .71-52.65.041-2.051 1.739-3.716 3.79-3.716 2.08 0 3.791 1.711 3.791 3.791 0 .025-.001.05-.001.075v.3c-1.35 22.92-.91 51.92 0 77.37v.88c.009 6.697-3.297 12.983-8.82 16.77-.989.69-1.609 1.796-1.68 3s-.46 3.91 1.26 22.84c.81 8.27 1.42 14 1.71 16.59.131.997.994 1.749 2 1.74h28.6l10.69.09c1.012.007 1.879-.755 2-1.76 2.48-22.69 3.06-35.44 3.06-35.44-.028-1.119-.887-2.056-2-2.18l-13-1.79c-1.762-.219-3.23-1.474-3.72-3.18-.158-.654-.212-1.329-.16-2 5.19-75.67 30.12-101.14 30.12-101.14.371-.371.776-.706 1.21-1 .683-.496 1.506-.764 2.351-.764 1.281 0 2.487.616 3.239 1.654.197.275.358.574.48.89.182.591.289 1.202.32 1.82 2.15 23.77 1.1 64.23-.23 95.79-1.13 26.79-2.5 47.82-2.5 47.82 0 .856.704 1.56 1.56 1.56 7.08.12 14 .26 21.44.45h.14c2.938.003 5.529-1.99 6.28-4.83 4.47-19.28 8-93.61 8.19-96.94.289-2.624 2.163-4.817 4.71-5.51l18.85-3.63c3.445-.873 5.565-4.423 4.7-7.87-.107-.406-.251-.8-.43-1.18z" fill="#fd7900" fill-rule="nonzero" transform="translate(-.007472 .000073)"/></svg>